<svg width="24" height="22" viewBox="0 0 24 22" fill="none" xmlns="http://www.w3.org/2000/svg">
<path d="M22.9023 5.21769C22.6406 4.23228 21.8695 3.45619 20.8905 3.19282C19.1159 2.71423 12 2.71423 12 2.71423C12 2.71423 4.88416 2.71423 3.10953 3.19282C2.13049 3.45623 1.3594 4.23228 1.09769 5.21769C0.622192 7.00382 0.622192 10.7304 0.622192 10.7304C0.622192 10.7304 0.622192 14.457 1.09769 16.2431C1.3594 17.2285 2.13049 17.9723 3.10953 18.2357C4.88416 18.7142 12 18.7142 12 18.7142C12 18.7142 19.1158 18.7142 20.8905 18.2357C21.8695 17.9723 22.6406 17.2285 22.9023 16.2431C23.3778 14.457 23.3778 10.7304 23.3778 10.7304C23.3778 10.7304 23.3778 7.00382 22.9023 5.21769ZM9.6727 14.1139V7.34694L15.6202 10.7305L9.6727 14.1139Z" fill="#111827"/>
</svg>
