<svg width="24" height="28" viewBox="0 0 24 28" fill="none" xmlns="http://www.w3.org/2000/svg">
<g clip-path="url(#clip0_8_157)">
<path d="M21.4286 1.71423H2.57143C1.88944 1.71423 1.23539 1.98515 0.753154 2.46739C0.270918 2.94962 0 3.60368 0 4.28566L0 23.1428C0 23.8248 0.270918 24.4788 0.753154 24.9611C1.23539 25.4433 1.88944 25.7142 2.57143 25.7142H9.92411V17.5548H6.54911V13.7142H9.92411V10.7871C9.92411 7.45763 11.9063 5.61852 14.9421 5.61852C16.3961 5.61852 17.9164 5.87781 17.9164 5.87781V9.14566H16.2413C14.5907 9.14566 14.0759 10.1699 14.0759 11.2205V13.7142H17.7605L17.1712 17.5548H14.0759V25.7142H21.4286C22.1106 25.7142 22.7646 25.4433 23.2468 24.9611C23.7291 24.4788 24 23.8248 24 23.1428V4.28566C24 3.60368 23.7291 2.94962 23.2468 2.46739C22.7646 1.98515 22.1106 1.71423 21.4286 1.71423Z" fill="#111827"/>
</g>
<defs>
<clipPath id="clip0_8_157">
<rect width="24" height="27.4286" fill="white"/>
</clipPath>
</defs>
</svg>
