<svg width="24" height="25" viewBox="0 0 24 25" fill="none" xmlns="http://www.w3.org/2000/svg">
<path d="M21.533 7.82586C21.5482 8.03905 21.5482 8.25228 21.5482 8.46547C21.5482 14.968 16.599 22.4604 7.5533 22.4604C4.76648 22.4604 2.17767 21.6532 0 20.2523C0.395953 20.2979 0.776625 20.3132 1.18781 20.3132C3.48727 20.3132 5.60405 19.5365 7.29441 18.2117C5.13197 18.166 3.31978 16.7497 2.69541 14.8005C3 14.8461 3.30455 14.8766 3.62437 14.8766C4.06598 14.8766 4.50764 14.8157 4.91878 14.7091C2.66498 14.2522 0.974578 12.2726 0.974578 9.88171V9.82081C1.62937 10.1863 2.39086 10.4147 3.19791 10.4451C1.87303 9.56188 1.00505 8.05428 1.00505 6.34869C1.00505 5.435 1.24866 4.59744 1.67508 3.86647C4.09641 6.85124 7.73602 8.80044 11.8172 9.01367C11.7411 8.64819 11.6954 8.26752 11.6954 7.8868C11.6954 5.17611 13.8883 2.96802 16.6141 2.96802C18.0304 2.96802 19.3095 3.56192 20.208 4.52131C21.3197 4.30813 22.3857 3.89694 23.3299 3.3335C22.9643 4.47566 22.1877 5.43505 21.1674 6.04414C22.1573 5.9376 23.1167 5.66342 23.9999 5.28275C23.33 6.25733 22.4924 7.12531 21.533 7.82586Z" fill="#111827"/>
</svg>
