<svg width="59" height="41" viewBox="0 0 59 41" fill="none" xmlns="http://www.w3.org/2000/svg">
<path fill-rule="evenodd" clip-rule="evenodd" d="M35 5.83333C35 4.28623 34.3854 2.8025 33.2915 1.70854C32.1975 0.61458 30.7138 0 29.1667 0H5.83333C4.28624 0 2.80251 0.61458 1.70854 1.70854C0.614582 2.8025 0 4.28623 0 5.83333V35C0 36.5471 0.614582 38.0308 1.70854 39.1248C2.80251 40.2188 4.28624 40.8333 5.83333 40.8333H29.1667C30.7138 40.8333 32.1975 40.2188 33.2915 39.1248C34.3854 38.0308 35 36.5471 35 35V5.83333ZM40.8333 33.2121L54.495 37.7679C54.9335 37.914 55.4004 37.9537 55.8572 37.8839C56.3141 37.8141 56.7478 37.6367 57.1226 37.3664C57.4975 37.0961 57.8027 36.7406 58.0132 36.3291C58.2237 35.9177 58.3334 35.4622 58.3333 35V5.83333C58.3334 5.37118 58.2237 4.91561 58.0132 4.50418C57.8027 4.09275 57.4975 3.73723 57.1226 3.46692C56.7478 3.1966 56.3141 3.01922 55.8572 2.94942C55.4004 2.87961 54.9335 2.91937 54.495 3.06541L40.8333 7.62125V33.2121Z" fill="url(#paint0_linear_5_19)"/>
<defs>
<linearGradient id="paint0_linear_5_19" x1="29.1667" y1="0" x2="29.1667" y2="40.8333" gradientUnits="userSpaceOnUse">
<stop stop-color="#A6042B"/>
<stop offset="1" stop-color="#DD131F"/>
</linearGradient>
</defs>
</svg>
